<svg width="179" height="965" viewBox="0 0 179 965" fill="none" xmlns="http://www.w3.org/2000/svg">
<g opacity="0.03">
<path d="M28.6237 545.806C30.7907 559.05 27.2591 572.517 23.5294 586.756C22.5185 590.61 21.4776 594.59 20.5203 598.648C20.1389 600.281 19.7625 601.943 19.3943 603.595C16.5922 616.071 13.6885 628.979 4.57387 635.76C-2.46313 640.995 -12.9778 642.563 -24.1044 644.232C-28.7738 644.925 -33.6093 645.656 -38.1349 646.67C-41.1158 647.34 -44.0133 648.148 -46.8252 648.923C-57.2156 651.808 -67.0334 654.54 -78.9273 649.97C-82.6024 648.565 -86.4973 646.436 -89.634 644.73C-92.4718 643.178 -95.4083 641.581 -96.1075 641.767C-96.4906 642.336 -94.2197 646.616 -83.3633 659.025C-80.46 662.34 -77.7692 665.284 -75.3882 667.884C-68.3549 675.569 -63.2716 681.121 -59.8673 688.488C-53.3724 702.544 -52.8743 723.113 -58.6085 740.892C-63.9778 757.558 -74.7036 771.027 -86.0697 785.29C-91.2147 791.745 -96.5364 798.422 -101.43 805.546C-103.773 808.939 -106.057 812.504 -108.28 815.948C-116.784 829.185 -125.581 842.865 -138.762 849.379C-145.259 852.591 -152.812 854.11 -160.809 855.713C-168.107 857.181 -175.653 858.689 -183.058 861.613C-192.909 865.505 -204.252 872.721 -206.558 881.296C-208.292 887.73 -204.807 894.659 -201.126 901.98C-199.293 905.632 -197.389 909.404 -196.18 913.138C-196.118 913.331 -196.224 913.551 -196.416 913.612C-196.609 913.674 -196.829 913.568 -196.891 913.376C-198.091 909.691 -199.971 905.946 -201.8 902.324C-205.552 894.872 -209.097 887.822 -207.287 881.111C-204.904 872.27 -193.354 864.889 -183.332 860.928C-175.869 857.984 -168.286 856.46 -160.958 854.987C-153.011 853.393 -145.506 851.881 -139.094 848.714C-126.1 842.292 -117.362 828.692 -108.914 815.545C-106.692 812.091 -104.398 808.524 -102.057 805.121C-97.1352 797.983 -91.8151 791.296 -86.6618 784.829C-75.3469 770.626 -64.6639 757.204 -59.3345 740.667C-53.6632 723.06 -54.1472 702.701 -60.5653 688.805C-63.9223 681.542 -68.9694 676.024 -75.9634 668.393C-78.3445 665.794 -81.0467 662.841 -83.9501 659.527C-90.1712 652.408 -97.4723 643.52 -96.8796 641.569C-96.8016 641.303 -96.6086 641.119 -96.3372 641.044C-95.4043 640.801 -93.2868 641.913 -89.3164 644.07C-86.2011 645.77 -82.3193 647.881 -78.6968 649.274C-67.031 653.749 -57.3284 651.057 -47.0647 648.202C-44.2446 647.416 -41.3274 646.604 -38.3366 645.933C-33.7814 644.914 -28.9344 644.192 -24.2568 643.487C-13.2289 641.834 -2.81285 640.282 4.08079 635.162C12.9796 628.548 15.845 615.778 18.6188 603.438C18.9953 601.775 19.3635 600.124 19.753 598.48C20.7087 594.412 21.7595 590.43 22.7688 586.566C26.5948 571.987 30.1832 558.247 27.642 544.761C24.8593 530.108 14.7959 515.298 0.712154 505.149C-14.8644 493.927 -35.9752 487.897 -62.0174 487.214C-66.7386 487.094 -71.5425 487.151 -76.1936 487.213C-90.1566 487.4 -103.352 487.573 -115.48 483.184C-126.218 479.297 -135.661 471.874 -140.747 463.333C-143.961 457.932 -145.574 451.852 -147.145 445.969C-147.833 443.376 -148.555 440.697 -149.395 438.099C-153.323 425.984 -160.128 415.485 -169.055 407.745C-178.146 399.87 -190.861 393.499 -204.862 389.802C-220.737 385.61 -235.648 385.578 -258.06 389.681C-259.271 389.899 -260.489 390.129 -261.726 390.372C-273.039 392.517 -284.744 394.736 -287.427 389.237C-289.176 385.673 -286.906 379.231 -283.88 374.997C-280.187 369.823 -274.748 366.836 -269.497 363.94C-267.944 363.088 -266.337 362.196 -264.795 361.275C-255.129 355.448 -246.746 347.044 -241.188 337.603C-235.876 328.576 -232.768 318.158 -231.695 305.762C-230.165 288.113 -233.121 270.418 -240.25 254.592C-250.973 230.801 -277.625 191.833 -293.462 180.259C-314.512 164.876 -337.631 157.969 -375.903 155.618L-379.209 155.419C-401.407 154.076 -426.552 152.557 -432.735 144.803C-433.96 143.261 -434.43 141.504 -434.106 139.586C-433.458 135.68 -429.552 130.816 -425.419 125.671C-423.095 122.778 -420.696 119.791 -418.82 116.89C-411.396 105.411 -412.144 95.2683 -415.957 81.625C-416.546 79.5123 -417.225 77.2827 -417.813 75.3624C-417.876 75.16 -417.757 74.9582 -417.565 74.8963C-417.362 74.8327 -417.161 74.9517 -417.099 75.1442C-416.509 77.0744 -415.83 79.304 -415.24 81.4265C-411.469 94.9349 -410.649 105.643 -418.195 117.305C-420.096 120.24 -422.503 123.238 -424.845 126.144C-428.911 131.207 -432.759 135.992 -433.376 139.71C-433.661 141.439 -433.261 142.954 -432.154 144.333C-426.175 151.826 -401.202 153.344 -379.168 154.673L-375.863 154.872C-337.428 157.226 -314.201 164.177 -293.025 179.65C-277.107 191.283 -250.327 230.412 -239.572 254.278C-232.394 270.218 -229.407 288.04 -230.956 305.823C-232.038 318.342 -235.181 328.858 -240.548 337.984C-246.171 347.528 -254.648 356.038 -264.416 361.923C-265.966 362.855 -267.583 363.748 -269.145 364.601C-274.332 367.457 -279.687 370.4 -283.281 375.436C-286.685 380.209 -288.188 386.008 -286.76 388.915C-284.322 393.907 -272.913 391.736 -261.876 389.646C-260.637 389.413 -259.408 389.182 -258.209 388.955C-235.681 384.823 -220.678 384.861 -204.686 389.084C-190.578 392.815 -177.753 399.238 -168.578 407.191C-159.544 415.025 -152.671 425.634 -148.691 437.882C-147.837 440.499 -147.123 443.189 -146.434 445.792C-144.883 451.618 -143.268 457.646 -140.118 462.967C-135.125 471.371 -125.824 478.675 -115.238 482.496C-103.239 486.835 -90.115 486.664 -76.2128 486.476C-71.5617 486.414 -66.7397 486.345 -62.007 486.472C-35.8037 487.15 -14.5632 493.23 1.13973 504.542C15.3727 514.799 25.5557 529.781 28.3691 544.621C28.4929 545.006 28.5591 545.411 28.6237 545.806Z" fill="#F3D9CF"/>
<path d="M68.3736 539.32C70.5633 552.702 71.6241 566.988 72.7548 582.135C73.0948 586.69 73.4394 591.335 73.8266 596.054C73.9789 597.914 74.1328 599.784 74.2884 601.663C77.075 634.981 80.2448 672.744 52.7438 687.235C47.0253 690.248 39.8646 692.312 32.9457 694.305C24.8849 696.627 16.564 699.033 10.3957 702.95C-4.78561 712.598 -7.82748 732.217 -10.7622 751.19C-11.4445 755.628 -12.1633 760.214 -13.0131 764.619C-20.2304 801.884 -38.61 831.247 -57.3994 857.425C-73.9932 880.548 -93.3741 904.35 -122.584 921.836C-122.758 921.946 -122.992 921.883 -123.101 921.708C-123.211 921.534 -123.148 921.3 -122.973 921.191C-93.8836 903.775 -74.5638 880.033 -58.0195 856.979C-39.2796 830.87 -20.9562 801.597 -13.7574 764.468C-12.906 760.072 -12.197 755.488 -11.5132 751.059C-8.54503 731.919 -5.48125 712.124 9.98496 702.298C16.2455 698.325 24.6255 695.91 32.7341 693.57C39.6135 691.583 46.7365 689.536 52.3891 686.554C79.4422 672.298 76.4379 636.412 73.5353 601.705C73.3797 599.826 73.2258 597.956 73.0735 596.096C72.6847 591.367 72.3417 586.732 72.0099 582.165C69.2999 545.725 66.9566 514.25 48.3813 488.603C40.6843 477.976 24.6617 455.853 -13.6032 456.146C-21.7396 456.211 -30.4828 458.017 -39.7343 459.936C-46.311 461.296 -53.1115 462.712 -59.8936 463.498C-69.5489 464.622 -79.0254 464.794 -89.0493 464.965L-93.222 465.04C-100.9 465.182 -108.849 465.337 -115.889 463.247C-121.663 461.526 -127.421 458.101 -132.541 453.315C-136.761 449.385 -140.377 444.687 -143.296 439.359C-147.685 431.363 -150.56 421.842 -151.827 411.065C-152.283 407.228 -152.047 403.278 -151.821 399.462C-151.514 394.274 -151.196 388.913 -152.639 383.93C-155.624 373.617 -164.734 365.066 -180.467 357.781C-185.268 355.567 -190.722 353.875 -195.995 352.245C-203.603 349.903 -210.786 347.684 -215.457 344.091C-229.34 333.433 -220.36 311.343 -210.86 287.962C-208.527 282.22 -206.122 276.294 -204.057 270.525C-187.395 223.912 -192.441 186.699 -219.068 159.897C-243.475 135.336 -289.37 117.108 -329.873 129.795C-332.004 130.457 -334.139 131.222 -336.206 131.966C-344.889 135.069 -353.085 137.99 -361.934 135C-368.143 132.905 -374.43 127.925 -376.559 123.4C-377.426 121.566 -377.587 119.9 -377.041 118.473C-375.384 114.108 -366.904 111.747 -359.703 110.174C-341.78 106.259 -327.899 106.561 -313.205 106.882C-309.859 106.953 -306.391 107.034 -302.922 107.054C-281.795 107.174 -251.012 105.187 -224.325 95.075C-206.482 88.3151 -191.071 78.2747 -174.756 67.6304C-157.706 56.5214 -140.071 45.0228 -129.88 30.4559C-129.051 29.2665 -128.25 28.0309 -127.493 26.7722C-127.391 26.5933 -127.157 26.5348 -126.978 26.6373C-126.8 26.7398 -126.741 26.9734 -126.844 27.1522C-127.607 28.4323 -128.414 29.6893 -129.263 30.8819C-139.537 45.5637 -157.226 57.1015 -174.34 68.2514C-190.693 78.912 -206.14 88.9786 -224.06 95.7613C-250.853 105.911 -281.736 107.904 -302.934 107.786C-306.412 107.767 -309.879 107.696 -313.226 107.615C-327.87 107.296 -341.71 106.997 -359.544 110.898C-366.011 112.311 -374.797 114.66 -376.339 118.733C-376.807 119.964 -376.658 121.43 -375.872 123.074C-373.812 127.429 -367.714 132.247 -361.686 134.281C-353.085 137.18 -345.005 134.297 -336.445 131.245C-334.368 130.5 -332.222 129.743 -330.083 129.069C-289.302 116.286 -243.093 134.635 -218.529 159.353C-205.683 172.278 -197.816 187.599 -194.937 205.195C-191.796 224.389 -194.587 246.287 -203.339 270.762C-205.411 276.553 -207.824 282.49 -210.158 288.232C-219.549 311.342 -228.421 333.171 -214.99 343.478C-210.424 346.986 -203.307 349.176 -195.761 351.508C-190.457 353.143 -184.983 354.831 -180.136 357.078C-164.197 364.451 -154.959 373.163 -151.907 383.699C-150.423 388.806 -150.75 394.24 -151.056 399.489C-151.278 403.274 -151.518 407.194 -151.064 410.96C-149.793 421.635 -146.953 431.07 -142.618 438.984C-139.732 444.237 -136.166 448.872 -132.005 452.751C-126.971 457.45 -121.31 460.83 -115.655 462.509C-108.72 464.576 -100.832 464.421 -93.2148 464.279L-89.0421 464.204C-79.0297 464.025 -69.5713 463.865 -59.9572 462.738C-53.2062 461.948 -46.4239 460.544 -39.857 459.186C-30.566 457.26 -21.7948 455.44 -13.5862 455.384C25.0551 455.1 41.2318 477.421 49.0074 488.156C59.928 503.311 65.278 520.402 68.3736 539.32Z" fill="#F3D9CF"/>
<path d="M-46.5747 560.918C-46.0935 563.859 -46.1226 567.026 -47.2721 569.909C-48.3801 572.674 -50.5148 575.172 -53.4749 577.146C-57.1104 579.575 -61.6849 580.972 -66.0415 580.975C-74.1776 580.979 -81.2768 576.112 -87.732 570.845C-89.5311 569.386 -91.3464 567.829 -93.0928 566.321C-101.085 559.462 -109.349 552.373 -119.895 550.218C-128.261 548.506 -138.829 549.749 -150.454 553.82C-159.196 556.871 -170.52 562.291 -174.834 570.729C-177.911 576.755 -177.374 584.185 -176.445 590.67C-174.886 601.622 -171.914 610.56 -167.379 618.025C-164.854 622.182 -161.657 626.178 -158.573 630.041C-156.165 633.052 -153.669 636.17 -151.47 639.387C-147.381 645.365 -144.355 651.598 -142.47 657.917C-140.432 664.737 -139.719 671.754 -139.332 677.092C-138.274 691.55 -138.929 705.935 -141.264 719.845C-143.952 735.869 -148.547 748.841 -155.314 759.504C-161.757 769.668 -170.896 778.966 -181.732 786.373C-189.825 791.902 -198.892 796.375 -207.671 800.689C-214.319 803.966 -221.193 807.35 -227.617 811.188C-235.094 815.654 -240.631 819.904 -245.006 824.561C-252.327 832.335 -257.217 842.205 -258.779 852.35C-259.867 859.388 -259.295 866.54 -258.75 873.462C-258.64 874.873 -258.521 876.282 -258.423 877.685C-257.68 888.294 -257.619 899.258 -258.234 914.325C-258.671 925.158 -259.403 934.803 -263.878 943.246C-263.971 943.424 -264.201 943.502 -264.39 943.401C-264.577 943.31 -264.645 943.078 -264.545 942.889C-260.137 934.589 -259.422 925.028 -258.989 914.297C-258.379 899.261 -258.435 888.327 -259.175 877.737C-259.273 876.335 -259.382 874.924 -259.499 873.524C-260.051 866.562 -260.62 859.369 -259.527 852.239C-257.938 841.948 -252.98 831.936 -245.567 824.045C-241.129 819.337 -235.559 815.041 -228.016 810.544C-221.564 806.691 -214.68 803.305 -208.014 800.016C-199.265 795.706 -190.215 791.256 -182.168 785.755C-171.414 778.402 -162.353 769.188 -155.957 759.103C-149.161 748.374 -144.733 735.865 -142.013 719.724C-139.689 705.877 -139.033 691.553 -140.092 677.155C-140.474 671.847 -141.187 664.891 -143.204 658.138C-145.066 651.897 -148.071 645.731 -152.109 639.816C-154.293 636.626 -156.778 633.517 -159.174 630.514C-162.281 626.635 -165.482 622.619 -168.034 618.416C-172.625 610.858 -175.623 601.824 -177.206 590.785C-178.153 584.191 -178.695 576.609 -175.517 570.394C-171.087 561.735 -159.587 556.216 -150.712 553.112C-142.516 550.251 -130.497 547.291 -119.751 549.485C-109.016 551.68 -100.672 558.827 -92.6094 565.745C-90.8532 567.252 -89.0493 568.801 -87.2601 570.261C-80.9098 575.444 -73.9452 580.232 -66.0425 580.226C-61.8388 580.217 -57.4075 578.873 -53.9005 576.526C-51.0788 574.636 -49.0266 572.253 -47.9864 569.631C-46.0519 564.795 -47.4653 559.068 -48.9841 555.111C-51.3464 548.972 -55.2065 543.96 -60.4611 540.209C-66.7247 535.742 -75.5194 532.712 -83.2851 530.335C-91.4878 527.827 -98.6584 525.991 -106.993 525.216C-115.986 524.377 -126.3 524.758 -137.218 525.166L-137.823 525.184C-149.062 525.605 -160.685 526.037 -169.201 522.172C-176.469 518.872 -181.054 512.59 -184.249 507.489C-188.203 501.164 -191.116 494.568 -193.933 488.189C-198.646 477.531 -203.091 467.456 -211.581 460.84C-217.261 456.409 -224.928 453.459 -231.667 451.167C-240.928 448.011 -248.759 446.04 -256.315 444.945C-265.272 443.645 -275.261 443.415 -286.843 444.215C-290.351 444.455 -293.942 444.799 -297.405 445.123C-303.302 445.683 -309.41 446.256 -315.623 446.432C-327.607 446.761 -336.356 445.498 -343.148 442.444C-351.057 438.885 -357.7 432.159 -362.878 422.438C-367.104 414.506 -371.484 402.415 -368.371 389.857C-365.909 379.95 -358.954 370.867 -352.618 363.143C-348.437 358.041 -344.104 353.066 -339.907 348.245C-334.805 342.394 -329.533 336.343 -324.647 330.163C-320.28 324.646 -315.376 318.017 -312.129 310.737C-309.01 303.731 -307.497 296.32 -307.752 289.309C-308.108 279.579 -311.84 270.33 -315.964 260.922C-320.04 251.618 -324.606 241.858 -331.567 233.624C-337.749 226.306 -346.325 219.664 -356.347 214.393C-364.95 209.873 -374.675 206.296 -386.063 203.458C-401.242 199.679 -414.683 198.352 -427.156 199.41C-439.29 200.433 -451.4 203.894 -463.115 207.23L-467.995 208.616C-478.365 211.569 -489.083 214.62 -499.469 217.961C-499.662 218.023 -499.882 217.917 -499.945 217.715C-500.007 217.522 -499.901 217.302 -499.709 217.24C-489.304 213.886 -478.576 210.834 -468.207 207.881L-463.327 206.494C-451.584 203.144 -439.434 199.677 -427.231 198.642C-414.678 197.581 -401.156 198.905 -385.901 202.712C-374.451 205.56 -364.672 209.158 -356.013 213.71C-345.902 219.027 -337.245 225.737 -331 233.125C-323.976 241.43 -319.389 251.259 -315.285 260.609C-311.131 270.082 -307.366 279.407 -307.009 289.268C-306.754 296.401 -308.288 303.927 -311.453 311.032C-314.728 318.387 -319.665 325.062 -324.064 330.625C-328.969 336.818 -334.249 342.881 -339.351 348.731C-343.54 353.541 -347.873 358.516 -352.046 363.607C-358.321 371.27 -365.217 380.272 -367.643 390.032C-370.705 402.348 -366.385 414.257 -362.218 422.076C-357.126 431.64 -350.601 438.263 -342.847 441.747C-336.153 444.755 -327.518 446.007 -315.647 445.666C-309.454 445.493 -303.366 444.923 -297.469 444.363C-293.996 444.038 -290.414 443.695 -286.887 443.453C-275.255 442.644 -265.216 442.875 -256.206 444.188C-248.609 445.285 -240.733 447.28 -231.421 450.438C-224.619 452.749 -216.886 455.73 -211.114 460.227C-202.473 466.96 -197.994 477.12 -193.246 487.864C-190.444 494.215 -187.534 500.791 -183.619 507.072C-180.487 512.092 -175.982 518.255 -168.9 521.474C-160.548 525.265 -149.016 524.837 -137.857 524.42L-137.252 524.402C-126.303 523.998 -115.961 523.603 -106.925 524.455C-98.528 525.24 -91.3064 527.078 -83.061 529.599C-75.2312 531.996 -66.3725 535.046 -60.017 539.579C-54.6377 543.411 -50.6876 548.54 -48.2714 554.822C-47.5944 556.607 -46.9381 558.698 -46.5747 560.918Z" fill="#F3D9CF"/>
<path d="M11.8347 552.656C15.1176 572.719 11.8769 590.628 2.18135 605.934C-5.95168 618.776 -17.9936 628.66 -30.8512 633.064C-51.2706 640.053 -75.8916 634.679 -92.124 627.313C-103.255 622.265 -111.575 615.884 -121.808 604.558C-122.352 603.958 -122.888 603.346 -123.434 602.737C-126.537 599.252 -129.75 595.654 -131.544 595.157C-132.001 595.029 -132.351 595.117 -132.635 595.426C-134.725 597.765 -132.485 611.017 -128.198 621.675C-121.807 637.571 -112.14 644.197 -101.893 651.214C-98.2635 653.701 -94.508 656.278 -90.9462 659.283C-78.4485 669.833 -70.2446 683.619 -68.9846 696.15C-67.5105 710.794 -75.2134 725.521 -82.6601 739.771L-84.821 743.904C-95.2505 763.891 -105.091 782.767 -119.844 799.682C-128.291 809.363 -139.12 819.292 -152.96 830.017C-163.003 837.811 -174.403 845.919 -189.682 852.431C-192.523 853.646 -195.534 854.818 -198.449 855.953C-208.345 859.812 -218.576 863.796 -222.44 869.475C-227.466 876.843 -222.15 887.535 -216.528 898.856C-212.54 906.877 -208.425 915.182 -207.475 923.092C-207.451 923.301 -207.593 923.486 -207.802 923.51C-208.011 923.534 -208.198 923.383 -208.22 923.184C-209.149 915.401 -213.235 907.153 -217.193 899.188C-222.918 887.671 -228.326 876.791 -223.055 869.059C-219.061 863.187 -209.172 859.339 -198.713 855.267C-195.798 854.131 -192.788 852.96 -189.965 851.758C-174.771 845.28 -163.417 837.2 -153.408 829.442C-139.605 818.743 -128.811 808.85 -120.398 799.205C-105.705 782.361 -95.879 763.517 -85.4727 743.575L-83.3118 739.442C-75.9098 725.291 -68.2614 710.664 -69.7181 696.25C-70.9474 683.906 -79.0697 670.31 -91.4164 659.876C-94.9439 656.897 -98.6878 654.328 -102.294 651.858C-112.177 645.085 -122.392 638.082 -128.868 621.977C-132.951 611.823 -135.721 597.806 -133.169 594.947C-132.698 594.423 -132.058 594.248 -131.325 594.452C-129.309 595.004 -126.168 598.533 -122.853 602.257C-122.308 602.867 -121.772 603.478 -121.23 604.068C-111.082 615.307 -102.821 621.636 -91.7982 626.642C-75.6971 633.948 -51.2847 639.286 -31.0776 632.362C-18.3731 628.013 -6.47615 618.234 1.56931 605.538C11.506 589.847 14.5709 571.36 10.7294 550.608C7.59326 533.733 1.01574 521.464 -8.8183 514.126C-20.0483 505.749 -36.6084 503.007 -52.618 500.348L-54.5553 500.026C-58.7323 499.332 -62.8189 498.632 -66.8643 497.936C-81.8352 495.37 -95.9714 492.951 -112.248 491.136L-114.745 490.865C-125.608 489.684 -136.833 488.461 -143.416 483.032C-149.823 477.748 -151.706 468.47 -153.529 459.497C-153.898 457.672 -154.278 455.789 -154.695 453.982C-157.051 443.668 -160.418 435.666 -165.282 428.791C-172.582 418.485 -183.964 409.799 -197.323 404.324C-214.776 397.179 -234.924 395.855 -254.059 400.597C-258.909 401.796 -264.059 403.206 -269.046 404.559C-288.272 409.803 -308.149 415.213 -321.624 412.565C-328.891 411.129 -335.348 405.295 -336.801 400.75C-339.374 392.7 -325.61 385.29 -312.283 378.124C-310.196 377.003 -308.118 375.892 -306.122 374.775C-286.402 363.827 -274.322 353.491 -264.424 339.114C-254.124 324.155 -247.848 307.209 -247.207 292.614C-246.134 268.271 -260.301 245.783 -272.768 228.915C-284.492 213.06 -303.12 190.685 -329.475 179.544C-345.489 172.771 -364.429 170.034 -382.759 167.379L-386.392 166.849C-404.163 164.264 -422.535 161.596 -440.445 162.865C-465.287 164.619 -490.516 174.047 -512.786 182.362C-512.977 182.434 -513.195 182.338 -513.267 182.147C-513.34 181.946 -513.242 181.738 -513.052 181.666C-490.744 173.335 -465.458 163.887 -440.505 162.125C-422.524 160.855 -404.101 163.525 -386.299 166.114L-382.666 166.644C-364.296 169.303 -345.303 172.052 -329.202 178.861C-302.673 190.074 -283.958 212.547 -272.182 228.475C-259.637 245.442 -245.387 268.067 -246.47 292.655C-247.121 307.383 -253.445 324.469 -263.817 339.542C-273.789 354.022 -285.94 364.421 -305.771 375.437C-307.768 376.545 -309.845 377.664 -311.941 378.788C-325 385.799 -338.496 393.053 -336.1 400.514C-334.7 404.855 -328.498 410.437 -321.492 411.824C-308.193 414.451 -288.395 409.053 -269.256 403.834C-264.271 402.471 -259.11 401.069 -254.251 399.859C-234.971 395.072 -214.659 396.41 -197.053 403.621C-183.564 409.146 -172.075 417.926 -164.685 428.349C-159.757 435.305 -156.357 443.392 -153.984 453.805C-153.565 455.622 -153.184 457.515 -152.815 459.339C-151.023 468.186 -149.163 477.325 -142.954 482.45C-136.546 487.735 -125.435 488.946 -114.683 490.126L-112.187 490.396C-95.8886 492.218 -81.7327 494.634 -66.7619 497.2C-62.7164 497.896 -58.6397 498.597 -54.4529 499.29L-52.5156 499.611C-36.4139 502.276 -19.77 505.035 -8.38911 513.528C1.60572 520.982 8.28139 533.417 11.4482 550.48C11.5858 551.197 11.7168 551.936 11.8347 552.656Z" fill="#F3D9CF"/>
<path d="M127.283 562.228C127.592 564.112 127.859 565.994 128.087 567.882C131.134 593.192 126.425 617.795 120.965 646.291C118.609 658.583 116.169 671.294 114.179 685.015C113.811 687.538 113.467 690.077 113.116 692.637C109.577 718.447 105.918 745.128 84.7698 753.239C77.7239 755.943 68.6735 756.552 59.9142 757.144C52.7581 757.626 45.352 758.129 39.312 759.796C13.6661 766.86 9.64803 795.252 5.38664 825.314C2.73538 844.038 -0.00489394 863.395 -8.13346 878.617C-8.23592 878.796 -8.45644 878.872 -8.6452 878.772C-8.83396 878.671 -8.90071 878.449 -8.79987 878.26C-0.732496 863.159 1.99773 843.865 4.64056 825.213C8.93228 794.903 12.9906 766.261 39.1021 759.07C45.2112 757.392 52.6567 756.883 59.8523 756.395C68.5508 755.802 77.5518 755.201 84.4826 752.537C105.211 744.585 108.845 718.121 112.348 692.529C112.699 689.969 113.052 687.419 113.42 684.896C115.407 671.155 117.845 658.434 120.209 646.131C125.659 617.698 130.368 593.155 127.329 567.955C124.575 545.12 115.617 522.449 106.126 498.447L104.971 495.535C103.548 493.032 102.1 489.945 100.575 486.689C97.2435 479.584 93.089 470.728 86.6669 462.629C70.4764 442.206 41.9789 427.879 15.7516 426.993C4.14613 426.602 -7.48644 428.708 -19.8181 430.938C-33.2617 433.371 -47.1675 435.89 -62.4488 435.452C-81.7723 434.895 -104.876 429.505 -111.79 416.045C-115.476 408.876 -114.352 399.4 -113.276 390.246C-112.308 382.042 -111.304 373.559 -113.691 366.653C-117.693 355.078 -131.478 347.312 -144.816 339.797C-165.247 330.241 -174.636 321.107 -175.251 310.163C-175.732 301.527 -170.514 291.554 -164.995 281.004C-161.946 275.175 -158.79 269.136 -156.642 263.313C-147.318 237.934 -156.518 215.272 -167.166 189.027C-169.084 184.305 -171.07 179.412 -172.982 174.415C-180.781 153.996 -186.606 133.326 -176.455 120.427C-170.323 112.635 -158.625 107.893 -145.064 102.401C-139.647 100.208 -134.051 97.9344 -128.516 95.3467C-108.473 85.9366 -88.0697 72.2827 -78.0295 18.8299C-77.9911 18.6311 -77.7918 18.487 -77.5913 18.5353C-77.3925 18.5737 -77.2484 18.773 -77.2967 18.9734C-87.3905 72.7796 -107.978 86.5446 -128.202 96.025C-133.754 98.6356 -139.362 100.901 -144.787 103.106C-158.243 108.56 -169.855 113.267 -175.862 120.897C-185.776 133.504 -179.999 153.949 -172.274 174.157C-170.362 179.154 -168.387 184.039 -166.47 188.761C-155.758 215.148 -146.517 237.935 -155.938 263.593C-158.097 269.469 -161.262 275.519 -164.325 281.381C-169.798 291.842 -174.961 301.715 -174.493 310.15C-173.911 320.644 -164.368 329.854 -144.464 339.162C-130.981 346.754 -117.063 354.59 -112.967 366.434C-110.523 373.502 -111.533 382.067 -112.518 390.355C-113.582 399.396 -114.685 408.756 -111.114 415.721C-104.348 428.892 -81.5252 434.175 -62.4154 434.727C-47.2147 435.168 -33.3483 432.656 -19.9442 430.23C-7.5731 427.992 4.09894 425.88 15.785 426.268C42.2161 427.162 70.945 441.602 87.2633 462.187C93.7378 470.359 97.9087 479.252 101.266 486.394C102.79 489.64 104.236 492.717 105.662 495.24L106.835 498.199C115.562 520.259 123.845 541.217 127.283 562.228Z" fill="#F3D9CF"/>
</g>
</svg>
