<svg width="122" height="869" viewBox="0 0 122 869" fill="none" xmlns="http://www.w3.org/2000/svg">
<path d="M0.746143 303.998C1.58977 290.605 9.6054 278.364 18.0749 265.421C20.3691 261.918 22.7346 258.3 25.0165 254.586C25.9299 253.091 26.8452 251.565 27.7471 250.049C34.5867 238.596 41.6689 226.748 54.8609 222.348C65.0459 218.952 78.5889 219.955 92.9223 221.008C98.9355 221.457 105.166 221.91 111.086 222.012C114.986 222.078 118.818 221.988 122.535 221.912C136.276 221.605 149.261 221.311 162.88 228.611C167.091 230.86 171.381 233.866 174.839 236.278C177.965 238.469 181.202 240.727 182.124 240.715C182.755 240.254 181.067 235.548 170.843 220.877C168.107 216.957 165.538 213.448 163.263 210.349C156.544 201.189 151.687 194.57 149.412 186.592C145.072 171.369 149.961 151.256 161.881 135.354C173.047 120.446 190.042 109.934 208.048 98.8039C216.199 93.7664 224.629 88.556 232.646 82.8086C236.479 80.0741 240.285 77.1576 243.982 74.3445C258.141 63.5232 272.785 52.3416 290.98 49.1792C299.949 47.6199 309.783 47.9588 320.192 48.3238C329.694 48.6518 339.516 48.9999 349.541 47.938C362.877 46.5236 378.968 42.2367 384.143 34.4566C388.03 28.6194 385.538 21.0477 382.906 13.0465C381.596 9.0562 380.23 4.93218 379.721 1.01248C379.696 0.810464 379.887 0.622106 380.144 0.608226C380.401 0.594347 380.647 0.750129 380.672 0.952142C381.184 4.82195 382.526 8.91442 383.838 12.8747C386.525 21.0198 389.061 28.7244 385.004 34.8114C379.66 42.8313 363.268 47.2296 349.699 48.6695C339.597 49.7365 329.724 49.3952 320.184 49.0648C309.839 48.7037 300.068 48.3689 291.216 49.9054C273.279 53.024 258.73 64.1414 244.664 74.8884C240.966 77.7116 237.148 80.6273 233.314 83.3717C225.259 89.1267 216.828 94.347 208.664 99.3938C190.737 110.479 173.809 120.955 162.727 135.748C150.932 151.498 146.081 171.402 150.368 186.451C152.612 194.318 157.433 200.894 164.117 209.992C166.392 213.091 168.974 216.611 171.709 220.53C177.566 228.945 184.297 239.339 183.035 241.093C182.866 241.333 182.576 241.465 182.217 241.472C180.988 241.485 178.643 239.895 174.266 236.843C170.833 234.443 166.554 231.458 162.406 229.233C149.046 222.079 136.215 222.363 122.641 222.67C118.911 222.756 115.053 222.843 111.14 222.777C105.182 222.672 98.9393 222.209 92.9127 221.769C78.7068 220.724 65.2914 219.729 55.3161 223.048C42.4382 227.337 35.4406 239.061 28.6729 250.388C27.7576 251.913 26.8557 253.429 25.9289 254.934C23.6464 258.658 21.2682 262.276 18.9734 265.788C10.2925 279.039 2.13301 291.531 1.69126 305.25C1.23845 320.161 9.83039 336.974 24.6883 350.225C41.1219 364.877 65.8534 375.813 98.1717 382.738C104.032 383.989 110.043 385.089 115.864 386.147C133.34 389.322 149.855 392.326 163.815 399.508C176.176 405.868 185.972 415.352 190.031 424.876C192.596 430.899 192.98 437.196 193.364 443.292C193.527 445.978 193.711 448.755 194.064 451.482C195.72 464.202 201.4 476.042 210.468 485.711C219.704 495.551 233.866 504.8 250.349 511.76C269.039 519.65 287.64 523.267 316.709 524.667C318.279 524.746 319.862 524.815 321.47 524.877C336.163 525.512 351.366 526.169 353.242 532.158C354.469 536.043 349.911 541.758 345 545.146C339.005 549.287 331.416 550.883 324.087 552.436C321.92 552.89 319.676 553.37 317.505 553.895C303.881 557.235 291.167 563.388 281.7 571.228C272.652 578.724 265.982 588.104 261.322 599.894C254.684 616.68 253.633 634.589 258.29 651.686C265.299 677.387 288.122 721.67 304.786 736.727C326.936 756.739 353.938 769.011 401.073 780.496L405.145 781.484C432.49 788.126 463.465 795.648 469.105 804.671C470.22 806.465 470.336 808.285 469.417 810.071C467.562 813.712 461.385 817.501 454.847 821.508C451.173 823.761 447.378 826.087 444.26 828.456C431.919 837.829 430.135 847.867 431.239 862.044C431.408 864.239 431.658 866.569 431.877 868.577C431.902 868.789 431.699 868.957 431.442 868.97C431.173 868.984 430.953 868.819 430.927 868.617C430.708 866.6 430.458 864.269 430.29 862.064C429.203 848.028 431.049 837.423 443.59 827.903C446.749 825.507 450.557 823.172 454.258 820.91C460.689 816.966 466.773 813.241 468.54 809.775C469.358 808.164 469.265 806.595 468.253 804.988C462.799 796.268 432.038 788.789 404.896 782.2L400.823 781.212C353.487 769.684 326.36 757.344 304.077 737.213C287.328 722.08 264.389 677.61 257.36 651.828C252.672 634.609 253.719 616.569 260.416 599.657C265.121 587.749 271.861 578.284 281.004 570.704C290.578 562.78 303.438 556.546 317.205 553.175C319.389 552.641 321.646 552.162 323.825 551.708C331.064 550.18 338.535 548.606 344.37 544.575C349.897 540.755 353.327 535.48 352.323 532.311C350.618 526.873 335.797 526.24 321.462 525.618C319.854 525.546 318.258 525.476 316.701 525.408C287.478 524.008 268.764 520.365 249.937 512.415C233.329 505.397 219.044 496.071 209.724 486.135C200.549 476.349 194.813 464.385 193.127 451.524C192.762 448.775 192.592 445.989 192.429 443.293C192.054 437.258 191.654 431.01 189.148 425.081C185.168 415.712 175.517 406.377 163.329 400.119C149.517 393.016 133.091 390.028 115.691 386.868C109.869 385.81 103.833 384.718 97.9601 383.456C65.439 376.498 40.559 365.482 23.992 350.712C8.97657 337.321 0.281804 320.311 0.746588 305.211C0.695224 304.806 0.720998 304.397 0.746143 303.998Z" fill="#F3D9CF"/>
</svg>
