<svg width="107" height="161" viewBox="0 0 107 161" fill="none" xmlns="http://www.w3.org/2000/svg">
<path d="M20.9586 21.1575L-15.8933 0.80957L-53.6026 9.71023L-57.9986 61.8589L-19.2808 78.939L1.17706 87.479L12.3359 48.0495L13.0122 48.4129L4.05131 89.8411L16.0555 95.2922L25.8618 56.9529L27.0453 58.0432L19.7751 97.291L52.5753 116.733L63.396 91.1131L64.2414 92.5667L54.6042 117.823L106.996 160.16C107.148 140.362 103.47 127.596 95.8581 106.013L76.5837 107.103L75.9074 106.013L94.6745 101.834C88.4291 89.0468 84.1651 82.3865 75.9074 70.944L54.097 81.3011L52.5753 79.6658L72.695 66.7649C62.8416 55.6462 57.1272 49.684 46.3196 39.5095L23.1566 55.1359L21.804 54.2274L43.7835 37.6925L24.002 23.5196L-2.88069 40.2363L-4.23328 39.5095L20.9586 21.1575Z" fill="#77807C"/>
<path d="M54.6028 117.824L106.995 160.16C78.1211 99.6708 53.7699 56.8901 -53.9626 16.9785L-57.9999 61.8591L-19.2822 78.9392L1.17569 87.4792L12.3345 48.0497L13.0108 48.4131L4.04993 89.8413L16.0541 95.2924L25.8604 56.9531L27.0439 58.0433L19.7737 97.2911L52.5739 116.733L63.3946 91.1132L64.24 92.5669L54.6028 117.824Z" fill="#354641"/>
</svg>
